<svg xmlns="http://www.w3.org/2000/svg" xmlns:xlink="http://www.w3.org/1999/xlink" width="500" zoomAndPan="magnify" viewBox="0 0 375 374.999991" height="500" preserveAspectRatio="xMidYMid meet" version="1.0"><defs><g/></defs><rect x="-37.5" width="450" fill="#ffffff" y="-37.499999" height="449.999989" fill-opacity="1"/><rect x="-37.5" width="450" fill="#ffffff" y="-37.499999" height="449.999989" fill-opacity="1"/><g fill="#000000" fill-opacity="1"><g transform="translate(71.208984, 277.874982)"><g><path d="M 70.078125 -33.296875 C 72.148438 -35.453125 73.679688 -38.289062 74.671875 -41.8125 C 75.660156 -45.34375 76.15625 -49.644531 76.15625 -54.71875 L 76.15625 -122.359375 L 66.859375 -117.328125 L 66.859375 -122.609375 C 72.359375 -125.367188 77.945312 -128.53125 83.625 -132.09375 C 89.3125 -135.664062 95.164062 -139.644531 101.1875 -144.03125 L 101.1875 -74.859375 C 101.1875 -64.535156 98.945312 -56.359375 94.46875 -50.328125 C 90 -44.304688 81.867188 -38.628906 70.078125 -33.296875 Z M 11.609375 -148.046875 C 13.335938 -161.546875 17.640625 -171.304688 24.515625 -177.328125 C 31.398438 -183.359375 41.898438 -186.375 56.015625 -186.375 C 65.222656 -186.375 78.171875 -185.234375 94.859375 -182.953125 C 111.554688 -180.671875 123.644531 -179.53125 131.125 -179.53125 C 137.320312 -179.53125 142.484375 -179.851562 146.609375 -180.5 C 150.742188 -181.144531 154.488281 -182.195312 157.84375 -183.65625 C 155.175781 -177.550781 151.625 -172.238281 147.1875 -167.71875 C 142.757812 -163.207031 137.492188 -159.660156 131.390625 -157.078125 L 131.390625 -39.625 C 134.054688 -42.207031 136.804688 -45.128906 139.640625 -48.390625 C 142.484375 -51.660156 145.285156 -55.191406 148.046875 -58.984375 C 144.253906 -38.765625 136.078125 -22.738281 123.515625 -10.90625 C 110.953125 0.925781 95.9375 6.84375 78.46875 6.84375 C 59.195312 6.84375 43.363281 0.328125 30.96875 -12.703125 C 18.582031 -25.742188 12.390625 -42.546875 12.390625 -63.109375 C 12.390625 -80.753906 16.046875 -96.910156 23.359375 -111.578125 C 30.671875 -126.242188 41.039062 -138.3125 54.46875 -147.78125 C 47.5 -136.851562 42.484375 -126.441406 39.421875 -116.546875 C 36.367188 -106.648438 34.84375 -96.28125 34.84375 -85.4375 C 34.84375 -66.25 39.273438 -50.867188 48.140625 -39.296875 C 57.003906 -27.722656 68.617188 -21.9375 82.984375 -21.9375 C 89.953125 -21.9375 97.222656 -23.207031 104.796875 -25.75 C 112.367188 -28.289062 119.898438 -31.96875 127.390625 -36.78125 L 127.390625 -155.90625 C 123.773438 -154.96875 120.460938 -154.257812 117.453125 -153.78125 C 114.441406 -153.3125 111.6875 -153.078125 109.1875 -153.078125 C 104.882812 -153.078125 94.664062 -154 78.53125 -155.84375 C 62.40625 -157.695312 48.578125 -158.625 37.046875 -158.625 C 30.328125 -158.625 24.945312 -157.785156 20.90625 -156.109375 C 16.863281 -154.429688 13.765625 -151.742188 11.609375 -148.046875 Z M 11.609375 -148.046875 "/></g></g><g transform="translate(224.282889, 277.874982)"><g><path d="M 12.65625 -6.578125 C 13.59375 -10.273438 15.242188 -13.4375 17.609375 -16.0625 C 19.984375 -18.6875 23.273438 -20.988281 27.484375 -22.96875 L 27.484375 -106.734375 L 25.171875 -106.734375 C 20.953125 -106.734375 17.316406 -106.390625 14.265625 -105.703125 C 11.210938 -105.015625 8.648438 -103.984375 6.578125 -102.609375 C 6.753906 -103.722656 6.925781 -105.1875 7.09375 -107 C 7.4375 -109.75 7.609375 -111.507812 7.609375 -112.28125 C 7.609375 -113.40625 7.546875 -114.695312 7.421875 -116.15625 C 7.296875 -117.625 7.0625 -119.945312 6.71875 -123.125 C 9.039062 -122.09375 11.597656 -121.316406 14.390625 -120.796875 C 17.179688 -120.285156 20.210938 -120.03125 23.484375 -120.03125 L 27.484375 -120.03125 L 27.484375 -124.8125 C 27.484375 -130.75 26.816406 -135.457031 25.484375 -138.9375 C 24.148438 -142.425781 21.804688 -145.632812 18.453125 -148.5625 C 25.515625 -149.25 32.1875 -151.203125 38.46875 -154.421875 C 44.75 -157.648438 51.414062 -162.578125 58.46875 -169.203125 L 60.28125 -167.265625 C 56.75 -163.398438 54.269531 -158.753906 52.84375 -153.328125 C 51.425781 -147.910156 50.71875 -139.519531 50.71875 -128.15625 L 50.71875 -120.03125 L 54.71875 -120.03125 C 57.988281 -120.03125 61.019531 -120.285156 63.8125 -120.796875 C 66.613281 -121.316406 69.132812 -122.09375 71.375 -123.125 C 71.289062 -122.78125 71.203125 -122.265625 71.109375 -121.578125 C 70.597656 -117.453125 70.34375 -114.523438 70.34375 -112.796875 C 70.34375 -111.253906 70.554688 -108.757812 70.984375 -105.3125 C 71.160156 -104.113281 71.289062 -103.210938 71.375 -102.609375 C 69.21875 -103.984375 66.613281 -105.015625 63.5625 -105.703125 C 60.507812 -106.390625 56.960938 -106.734375 52.921875 -106.734375 L 50.71875 -106.734375 L 50.71875 -28.53125 C 54.25 -27.40625 57.347656 -25.8125 60.015625 -23.75 C 62.679688 -21.6875 65.132812 -18.972656 67.375 -15.609375 L 73.953125 -20.390625 L 76.15625 -16.90625 C 69.351562 -12 63.539062 -7.394531 58.71875 -3.09375 C 53.90625 1.207031 50.722656 4.601562 49.171875 7.09375 C 46.929688 2.625 43.53125 -1.023438 38.96875 -3.859375 C 34.414062 -6.703125 29.597656 -8.125 24.515625 -8.125 C 22.890625 -8.125 21.039062 -7.992188 18.96875 -7.734375 C 16.90625 -7.484375 14.800781 -7.097656 12.65625 -6.578125 Z M 12.65625 -6.578125 "/></g></g></g></svg>